# xmcd
#
# Track frame offsets:
#	150
#	19115
#	32820
#	48030
#	60375
#	69895
#	85005
#	96292
#	109250
#	123062
#	133935
#	146760
#	159060
#	172200
#	185957
#	199977
#	218512
#	231445
#
# Disc length: 3208 seconds
#
# Revision: 1
# Processed by: cddbd v1.5.1PL2 Copyright (c) Steve Scherf et al.
# Submitted via: audiograbber 1.83.01
#
DISCID=fb0c8612
DTITLE=Tom T Hall - The best of
DYEAR=1999
DGENRE=Country
TTITLE0=Old dogs, children, and watermelon wine
TTITLE1=Ballad of forty dollars
TTITLE2=Homecoming
TTITLE3=The year Clayton Delaney died
TTITLE4=I love
TTITLE5=Margie's at the Lincoln Park Inn
TTITLE6=Ravishing Ruby
TTITLE7=I like beer
TTITLE8=A week in a country jail
TTITLE9=Will the wandering gypsy and me
TTITLE10=Faster horses (The cowboy and the poet)
TTITLE11=I washed my face in the morning dew
TTITLE12=Old five-and-dimers like me
TTITLE13=That's how I got to Memphis
TTITLE14=Shoeshine man
TTITLE15=Nashville is a groovy little town
TTITLE16=I took a memory to lunch
TTITLE17=I can't dance
EXTD=
EXTT0=
EXTT1=
EXTT2=
EXTT3=
EXTT4=
EXTT5=
EXTT6=
EXTT7=
EXTT8=
EXTT9=
EXTT10=
EXTT11=
EXTT12=
EXTT13=
EXTT14=
EXTT15=
EXTT16=
EXTT17=
PLAYORDER=
